<?xml version="1.0" standalone="no"?>
<!DOCTYPE svg PUBLIC "-//W3C//DTD SVG 20010904//EN"
 "http://www.w3.org/TR/2001/REC-SVG-20010904/DTD/svg10.dtd">
<svg version="1.0" xmlns="http://www.w3.org/2000/svg"
 width="300.000000pt" height="300.000000pt" viewBox="0 0 300.000000 300.000000"
 preserveAspectRatio="xMidYMid meet">
<metadata>
Created by potrace 1.11, written by Peter Selinger 2001-2013
</metadata>
<g transform="translate(0.000000,300.000000) scale(0.100000,-0.100000)"
fill="#000000" stroke="none">
<path d="M105 2985 c-37 -17 -54 -31 -83 -69 l-22 -29 0 -1391 c0 -1330 1
-1392 18 -1419 10 -15 34 -39 52 -52 l34 -25 1388 0 1388 0 34 22 c18 12 44
38 57 57 l24 35 3 1355 c1 746 0 1371 -3 1389 -8 42 -59 100 -110 123 -38 18
-106 19 -1395 18 -1144 0 -1360 -2 -1385 -14z m1845 -1295 l0 -700 -760 0
-760 0 0 700 0 700 760 0 760 0 0 -700z m620 -455 l0 -725 -790 0 -790 0 0
215 0 215 505 0 505 0 0 510 0 510 285 0 285 0 0 -725z"/>
</g>
</svg>
